<svg width="200" height="200" viewBox="0 0 200 200" fill="none" xmlns="http://www.w3.org/2000/svg">
<path d="M47.6561 0.625019C43.2421 1.56252 38.8671 3.98439 35.5467 7.38283C31.3671 11.6016 29.2967 15.8203 28.4764 21.7188C27.8124 26.5625 29.1796 29.4531 32.7733 30.7422L34.6092 31.3672L35.0389 34.0625C36.5233 43.5156 46.0155 50.3906 55.5077 48.9453C63.3592 47.7344 69.4921 41.6406 70.7811 33.8281C71.2108 31.2891 71.2499 31.25 72.6561 30.8594C74.453 30.3906 76.0155 29.1797 76.7577 27.7344C77.6561 25.9766 77.4999 21.3672 76.4452 17.6563C75.2342 13.5547 73.4764 10.625 70.078 7.18752C64.2967 1.36721 55.8202 -1.13279 47.6561 0.625019ZM49.6092 11.1328C49.6092 15 49.6874 15.3125 50.5858 16.211C51.6014 17.2266 53.3983 17.5 54.6874 16.7969C55.7811 16.211 56.2499 14.2969 56.2499 10.5078C56.2499 8.59377 56.4061 7.03127 56.6014 7.03127C56.7577 7.03127 57.4608 7.22658 58.1639 7.46096L59.3749 7.89064V11.1719C59.3749 15.8203 60.1561 17.1875 62.8905 17.1875C64.4921 17.1875 65.5858 16.0938 65.9374 14.0625L66.2108 12.3438L67.8514 14.7656C69.4921 17.2266 70.4296 19.8828 70.8202 22.9297L71.0155 24.6094H52.8514H34.7264L34.9608 22.7344C35.4296 19.2578 36.8749 15.8203 38.828 13.4766L39.8046 12.3047L39.8436 13.7891C39.8827 17.9297 45.5858 18.4375 46.2889 14.375C46.4061 13.6719 46.5233 11.875 46.6014 10.3516C46.6796 7.85159 46.7577 7.61721 47.6561 7.38283C49.6483 6.83596 49.6092 6.7969 49.6092 11.1328Z" fill="#b5b5b5"/>
<path d="M123.359 40.7031C123.047 40.9765 120.43 45.0781 117.578 49.8047C114.687 54.5312 110.976 60.664 109.297 63.4375C106.015 68.8672 105.586 70.4297 106.992 71.8359C107.422 72.2656 108.515 72.8125 109.453 73.0469C112.226 73.75 113.086 74.1015 113.047 74.4531C113.008 74.8437 110.078 86.875 110 86.9922C109.883 87.1875 93.5936 83.2422 93.3983 82.9297C93.2811 82.7344 89.0624 76.5625 84.0624 69.2187C79.0233 61.875 74.3358 55.3515 73.6327 54.7265C72.3046 53.5547 69.5311 52.7344 66.9921 52.7344H65.6249V83.3984V114.062H70.3124H74.9999V149.023V183.984H65.6249H56.2499V159.375V134.766H52.9296H49.6092V159.375V183.984H40.2342H30.8592V149.023V114.062H35.5467H40.2342V83.3594V52.6172L37.6561 52.8515C34.3358 53.164 31.9139 54.3359 30.7811 56.1719C29.4921 58.2812 4.02331 114.141 3.51549 116.016C2.96862 118.047 3.32018 119.844 4.68737 121.992C7.34362 126.211 13.8671 126.523 16.953 122.617C17.5389 121.875 20.7811 115.156 24.2186 107.656C27.6561 100.156 30.5467 93.9453 30.6639 93.8281C30.7811 93.7109 30.8592 96.7187 30.8592 100.469V107.344L29.1796 107.734C27.3827 108.203 25.3124 110.078 24.6483 111.836C24.3358 112.578 24.2186 124.609 24.2186 149.258C24.2186 184.609 24.2577 185.625 24.9999 187.07C25.8202 188.711 27.6952 190.078 29.6483 190.469C30.6249 190.664 30.8592 190.898 30.8592 191.758C30.8592 193.359 32.6952 196.68 34.2186 197.852C38.3592 201.016 44.0624 200.469 47.2264 196.602C48.3592 195.234 48.8671 194.141 49.3749 191.758C49.6874 190.312 52.1874 189.57 54.5311 190.234C55.9764 190.664 56.2108 190.859 56.4452 192.109C57.4999 197.656 63.3202 201.289 68.3983 199.531C71.6796 198.437 74.3749 195.43 74.8046 192.383C75.0389 190.859 75.1952 190.742 76.7186 190.312C78.5936 189.844 80.3124 188.281 81.0936 186.445C81.9139 184.57 81.9139 113.477 81.0936 111.602C80.4296 109.961 78.5155 108.359 76.5624 107.773L74.9999 107.305V95.5859C74.9999 89.1406 75.078 83.9453 75.1561 84.0234C75.2342 84.1015 76.9139 86.5625 78.9061 89.4531C82.9686 95.3906 83.7499 96.3281 85.1952 97.0703C86.328 97.6953 108.086 102.734 109.453 102.734C109.961 102.734 111.25 102.305 112.383 101.797C115.898 100.117 117.539 96.3672 116.406 92.3828C115.937 90.7422 116.055 90.1172 117.578 83.5937C118.515 79.7265 119.414 76.3672 119.57 76.1328C119.765 75.7812 120.273 75.7812 121.601 76.1328C124.453 76.8359 126.406 76.6797 127.344 75.7031C128.359 74.6094 128.359 73.8672 127.148 56.4453C126.601 48.7109 126.172 42.1875 126.172 41.914C126.172 41.3281 125.078 40.2344 124.453 40.2344C124.18 40.2344 123.711 40.4687 123.359 40.7031Z" fill="#b5b5b5"/>
<path d="M46.5625 65.8984L46.6797 79.1016L52.8516 79.2188L58.9844 79.3359V66.0156V52.7344H52.7344H46.4844L46.5625 65.8984Z" fill="#b5b5b5"/>
<path d="M124.727 100.156L123.633 101.094V109.688C123.633 118.242 123.633 118.281 124.57 119.297L125.508 120.312H147.07H168.633L169.57 119.297C170.508 118.281 170.508 118.242 170.508 109.688V101.094L169.414 100.156L168.32 99.2188H147.07H125.82L124.727 100.156Z" fill="#b5b5b5"/>
<path d="M176.758 99.6875C175.078 100.664 175.039 101.016 175 109.883V118.398L175.977 119.336L176.914 120.312H185.859H194.805L195.742 119.297C196.68 118.281 196.68 118.242 196.68 109.688V101.094L195.586 100.156C194.492 99.2188 194.414 99.2188 186.016 99.2188C180.391 99.2578 177.266 99.375 176.758 99.6875Z" fill="#b5b5b5"/>
<path d="M99.2188 125.898C97.4609 126.797 97.2656 127.773 97.2656 136.055C97.2656 144.102 97.5391 145.664 99.0234 146.25C99.375 146.367 109.297 146.484 121.055 146.484H142.461L143.281 145.586C144.102 144.727 144.141 144.375 144.141 136.25C144.141 131.602 144.023 127.5 143.906 127.148C143.242 125.43 142.578 125.391 120.82 125.391C105.078 125.391 99.9609 125.508 99.2188 125.898Z" fill="#b5b5b5"/>
<path d="M151.484 125.977C149.805 126.914 149.531 128.594 149.687 136.992C149.805 144.297 149.844 144.492 150.742 145.469L151.68 146.484H173.242C194.219 146.484 194.805 146.445 195.625 145.703C196.797 144.609 196.953 143.32 196.797 134.883C196.68 127.656 196.641 127.344 195.781 126.484L194.883 125.586L173.711 125.508C155.586 125.43 152.383 125.508 151.484 125.977Z" fill="#b5b5b5"/>
<path d="M125.352 152.148C123.711 153.047 123.438 154.57 123.438 162.305C123.438 170.469 123.711 171.719 125.625 172.5C127.539 173.32 166.602 173.32 168.516 172.5C170.43 171.719 170.703 170.469 170.703 162.305C170.703 154.141 170.43 152.891 168.516 152.109C166.562 151.289 126.836 151.328 125.352 152.148Z" fill="#b5b5b5"/>
<path d="M177.344 151.836C177.031 151.953 176.367 152.422 175.898 152.852C175 153.633 175 153.828 175 162.148C175 170.586 175 170.664 175.937 171.758L176.875 172.852L184.844 172.969C194.141 173.125 195.469 172.891 196.328 170.898C197.031 169.219 197.109 155.859 196.445 153.945C195.664 151.758 194.727 151.563 185.859 151.602C181.484 151.602 177.656 151.719 177.344 151.836Z" fill="#b5b5b5"/>
<path d="M99.4141 178.281C98.75 178.555 98.0078 179.258 97.7344 179.844C97.1484 181.133 97.0703 195.547 97.6562 197.07C98.4375 199.18 98.9453 199.219 120.859 199.219C133.828 199.219 141.328 199.063 142.031 198.828C144.062 198.047 144.102 197.734 144.141 188.438V179.805L143.125 178.867L142.109 177.93L121.367 177.852C104.766 177.773 100.352 177.852 99.4141 178.281Z" fill="#b5b5b5"/>
<path d="M151.719 178.281C149.883 179.102 149.609 180.43 149.609 188.477C149.609 196.641 149.883 197.891 151.797 198.672C153.711 199.492 192.773 199.492 194.688 198.672C196.602 197.891 196.875 196.641 196.875 188.477C196.875 180.312 196.602 179.062 194.688 178.281C192.812 177.5 153.516 177.5 151.719 178.281Z" fill="#b5b5b5"/>
</svg>
