<svg width="200" height="200" viewBox="0 0 200 200" fill="none" xmlns="http://www.w3.org/2000/svg">
<path d="M97.1877 0.820328C96.2893 1.28908 95.3909 2.18752 94.9221 3.12502C94.1799 4.60939 94.1409 5.39064 94.1409 32.1094V59.5703L91.5627 60.0781C87.8518 60.7813 82.5393 62.8516 78.9846 65C69.4143 70.7813 63.1643 79.2578 60.0784 90.5469C58.9065 94.8828 58.8674 105.117 60.0393 109.375C62.2268 117.344 65.7815 123.672 71.0549 128.945C76.3284 134.219 82.6956 137.773 90.6252 139.922C95.1174 141.172 104.766 141.133 109.531 139.883C127.383 135.234 139.844 120.313 140.899 102.344C141.992 83.2422 129.766 66.1719 111.133 60.7422C109.258 60.1953 107.305 59.7656 106.797 59.7656H105.86V32.2266C105.86 5.35158 105.821 4.60939 105.078 3.12502C103.633 0.273453 100.117 -0.742172 97.1877 0.820328Z" fill="#b5b5b5"/>
<path d="M26.8749 83.2422C24.2577 84.6094 23.1249 88.0859 24.453 90.7422C25.3124 92.4609 36.9921 104.18 38.7499 105.117C39.5702 105.508 40.7421 105.859 41.4061 105.859C43.3593 105.859 45.5858 104.492 46.4843 102.734C47.4608 100.82 47.4608 99.2188 46.5233 97.3438C45.5858 95.5859 33.8671 83.9062 32.1483 83.0469C30.5077 82.2266 28.6327 82.2656 26.8749 83.2422Z" fill="#b5b5b5"/>
<path d="M167.773 83.0468C166.055 83.9452 154.375 95.6249 153.477 97.3437C153.086 98.164 152.734 99.3359 152.734 99.9999C152.734 101.953 154.102 104.18 155.859 105.078C157.773 106.055 159.375 106.055 161.25 105.117C163.008 104.18 174.688 92.4609 175.547 90.7421C177.93 85.9765 172.5 80.5859 167.773 83.0468Z" fill="#b5b5b5"/>
<path d="M3.04688 118.398C2.14844 118.867 1.25 119.766 0.78125 120.703C0.0390625 122.148 0 122.969 0 137.5V152.734H35.3516H70.7031V149.219C70.7031 146.758 70.5078 145.273 70.0781 144.414C69.3359 142.891 57.6953 131.055 56.0547 130.156C55.1953 129.688 53.5547 129.453 50.0781 129.297L45.2344 129.102L43.5156 124.844C42.5781 122.5 41.4062 120.156 40.9375 119.609C38.9844 117.539 39.1797 117.578 21.2109 117.578C5.35156 117.617 4.41406 117.656 3.04688 118.398Z" fill="#b5b5b5"/>
<path d="M155.898 118.242C154.297 119.062 153.594 120.195 151.523 125.273L149.922 129.297H145.508C143.047 129.297 140.586 129.492 139.961 129.727C138.477 130.273 125.82 142.852 125.156 144.414C124.805 145.195 124.609 147.07 124.609 149.219V152.734H162.305H200V137.5C200 122.969 199.961 122.148 199.219 120.703C198.711 119.688 197.891 118.867 196.875 118.359C195.391 117.617 194.609 117.578 176.289 117.578C159.297 117.578 157.07 117.656 155.898 118.242Z" fill="#b5b5b5"/>
<path d="M0 179.883C0 194.609 0.0390625 195.43 0.78125 196.875C1.28906 197.891 2.10938 198.711 3.125 199.219C4.60938 199.961 5.39062 200 25.9766 200H47.2656V182.227V164.453H23.6328H0V179.883Z" fill="#b5b5b5"/>
<path d="M58.9844 182.227V200H100H141.016V182.227V164.453H100H58.9844V182.227Z" fill="#b5b5b5"/>
<path d="M152.734 182.227V200H174.023C194.609 200 195.391 199.961 196.875 199.219C197.891 198.711 198.711 197.891 199.219 196.875C199.961 195.43 200 194.609 200 179.883V164.453H176.367H152.734V182.227Z" fill="#b5b5b5"/>
</svg>
