<svg width="200" height="200" viewBox="0 0 200 200" fill="none" xmlns="http://www.w3.org/2000/svg">
<g clip-path="url(#clip0_221_354)">
<path d="M43 9.4C31 14.4 16.6 19 11 19.8L1 21V44V66.8L7.4 68.2C11 68.8 18.2 72.4 23.8 75.8C36.4 84 43.6 85 64.8 82C86.8 79 92 80 92 88C92 92.4 93.6 94.6 98 97.4C103.8 100.8 104 101.4 104 115.2C104 131 107 136 116.4 136C124.8 136 128 130.4 128 114.8C128 101.6 128.2 100.8 134 97.6C139.6 94.4 140 93.4 140 82.2C140 75.6 139.2 69.6 138 69C137 68.4 136 65.8 136 63.6C136 61.2 130.6 50.6 124 40L112 20.6L91.2 10.2C79.8 4.59999 69.2 0 67.6 0C66.2 0.199997 55.2 4.2 43 9.4ZM83.2 39.4C88.6 41.2 93.6 43.8 94.6 45.2C95.4 46.6 100.8 50.4 106.4 53.4C118.4 60 114.6 62.4 102.2 56.2C97.6 53.8 90.2 52 85.2 52C69.8 52 61.8 46.8 64.8 39C66.2 35.2 71 35.2 83.2 39.4ZM129.8 70.8C131.2 72.4 132 77.6 131.6 82.2C131 89.6 130.2 91 126 92C121.2 93.2 121 93.8 120.4 110.6C119.8 126.4 119.4 128 116 128C112.4 128 112 126.6 112 110.8V93.8L106 91.8C102.8 90.6 100 88.2 100 86.6C100 84 101.8 83.8 110 84.8C118.4 86 120.2 85.6 121.4 82.8C122 81 121.6 77.8 120.4 75.8C119 73.8 118 71.2 118 70C118 67 127.2 67.6 129.8 70.8Z" fill="#b5b5b5"/>
<path d="M136 137.2C128.4 140.2 115.8 142.8 105.4 143.8C86.3999 145.6 79.9999 149 79.9999 157.2C79.9999 166.4 87.1999 168.6 115.4 167.4C129.6 167 143 165.8 145.6 165C148.2 164.2 150 164.4 150 165.6C150 169.2 132.6 172 110.6 172C85.7999 172 79.7999 170 76.9999 160.4C75.3999 155 73.3999 153.2 63.9999 149.8C47.7999 143.6 36.7999 142.6 31.9999 147C26.9999 151.6 26.7999 160.4 31.7999 164.8C36.1999 168.8 73.5999 184.8 100.2 194.2L119.2 200.8L140.6 193.2C156.6 187.4 163.8 185.8 169.4 186.6C187.8 189.4 185.8 191 193.4 169.2C199 153 199.8 149 197.6 147C193.2 142.8 162.6 132 155.6 132C152 132.2 143.2 134.4 136 137.2Z" fill="#b5b5b5"/>
<path d="M49 136.8C45.8 139.2 46.8 140 61 144.6C76.4 149.8 76.6 149.8 81.4 146C85 143.2 85.8 141.8 83.8 141C61.8 133 55.2 132.2 49 136.8Z" fill="#b5b5b5"/>
</g>
<defs>
<clipPath id="clip0_221_354">
<rect width="200" height="200" fill="white"/>
</clipPath>
</defs>
</svg>
